<svg version="1.1" xmlns="http://www.w3.org/2000/svg" viewBox="-909.1509189452768 -1935.3094534808529 3136.958856298085 3136.9653992049516"><desc>Created with Snap</desc><defs></defs><g><rect x="-909.1509189452768" y="-1935.3094534808529" width="3136.958856298085" height="3136.9653992049516" fill="#000000" style=""></rect><g transform="matrix(6.6999,0,0,6.6999,-680.6588,-1713.2644)">
<g id="gSl4enoucb43r">
	<path fill="#ffffff" d="M369.78955,219.42564l18.46289-18.46289l-18.46289-18.46289V31.17271H218.4624l-18.46289-18.46289
		l-18.46277,18.46289H30.20947v151.32812l-18.46191,18.46191l18.46191,18.46191v151.32811h151.32727l18.46277,18.46289
		l18.46289-18.46289h151.32715V219.42564z M375.52393,200.96275l-5.73438,5.73438v-11.46875L375.52393,200.96275z
		 M232.42529,344.06137h-64.85138L56.90088,233.3878v-64.8501L167.57391,57.86412h64.85138l110.67285,110.67285v64.85156
		L232.42529,344.06137z M343.09814,246.11705v97.94432h-97.94434L343.09814,246.11705z M223.42529,353.06137l-8.69141,8.69141
		H185.2652l-8.69135-8.69141H223.42529z M56.90088,246.11632l97.94458,97.94505H56.90088V246.11632z M47.90088,224.38756
		l-8.69141-8.69141v-29.4668l8.69141-8.69141V224.38756z M56.90088,155.80919V57.86412h97.94458L56.90088,155.80919z
		 M176.57385,48.86412l8.69135-8.69141h29.46869l8.69141,8.69141H176.57385z M343.09814,155.80846l-97.94434-97.94434h97.94434
		V155.80846z M352.09814,177.53697l8.69141,8.69141v29.46875l-8.69141,8.69141V177.53697z M360.78955,40.17271v133.32715
		l-8.69141-8.69141V48.86412H236.15381l-8.69141-8.69141H360.78955z M199.99951,25.43834l5.73438,5.73438H194.2652
		L199.99951,25.43834z M39.20947,40.17271h133.32727l-8.69135,8.69141H47.90088v115.94507l-8.69141,8.69165V40.17271z
		 M24.47607,200.96275l5.7334-5.7334v11.4668L24.47607,200.96275z M39.20947,361.75278V228.42467l8.69141,8.69165v115.94505
		H163.8454l8.69135,8.69141H39.20947z M199.99951,376.48715l-5.73431-5.73438h11.46869L199.99951,376.48715z M227.4624,361.75278
		l8.69141-8.69141h115.94434V237.11705l8.69141-8.69141v133.32713H227.4624z" style=""></path>
</g>


<desc>Created with Snap</desc><defs></defs></g><g><g transform="matrix(1.024,0,0,-1.024,0,0)"><path d="M467 0L302 292L195 292L195 0L100 0L100 689L281 689Q410 689 476 640Q543 591 543 494Q543 422 506 377Q469 332 394 309L580 0L467 0ZM195 365L291 365Q366 365 404 395Q442 426 442 494Q442 558 403 586Q365 615 280 615L195 615L195 365ZM959 701Q1024 701 1071 682Q1119 664 1166 625L1110 567Q1073 597 1039 610Q1005 623 959 623Q906 623 861 594Q817 566 789 503Q761 441 761 345Q761 200 808 133Q856 66 949 66Q1025 66 1080 97L1080 305L958 305L947 382L1174 382L1174 49Q1067 -12 949 -12Q813 -12 736 79Q660 170 660 345Q660 457 700 537Q741 618 809 659Q878 701 959 701Z" fill="#ffffff" style=""></path></g></g></g></svg>